<svg xmlns="http://www.w3.org/2000/svg" viewBox="0 0 900 70" width="900" height="70">
<style>.osc{animation:osc 3s ease-in-out infinite;transform-origin:450px 34px}@keyframes osc{0%,100%{transform:rotate(-5deg)}50%{transform:rotate(5deg)}}
.p{animation:p 2.6s ease-in-out infinite}@keyframes p{0%,100%{opacity:.65}50%{opacity:1}}
@media (prefers-color-scheme:dark){circle{fill:#FFFFFF;stroke:#FF69B4;stroke-width:2}.p{animation:pd 2.6s ease-in-out infinite}@keyframes pd{0%,100%{opacity:.8}50%{opacity:1}}}</style>
<g class="p"><circle cx="30" cy="36" r="6" fill="#FFFBFD" stroke="#FFC2E0" stroke-width="1.6"/><circle cx="52" cy="36" r="6" fill="#FFFBFD" stroke="#FFC2E0" stroke-width="1.6"/><circle cx="74" cy="36" r="6" fill="#FFFBFD" stroke="#FFC2E0" stroke-width="1.6"/><circle cx="96" cy="36" r="6" fill="#FFFBFD" stroke="#FFC2E0" stroke-width="1.6"/><circle cx="118" cy="36" r="6" fill="#FFFBFD" stroke="#FFC2E0" stroke-width="1.6"/><circle cx="140" cy="36" r="6" fill="#FFFBFD" stroke="#FFC2E0" stroke-width="1.6"/><circle cx="162" cy="36" r="6" fill="#FFFBFD" stroke="#FFC2E0" stroke-width="1.6"/><circle cx="184" cy="36" r="6" fill="#FFFBFD" stroke="#FFC2E0" stroke-width="1.6"/><circle cx="206" cy="36" r="6" fill="#FFFBFD" stroke="#FFC2E0" stroke-width="1.6"/><circle cx="228" cy="36" r="6" fill="#FFFBFD" stroke="#FFC2E0" stroke-width="1.6"/><circle cx="250" cy="36" r="6" fill="#FFFBFD" stroke="#FFC2E0" stroke-width="1.6"/><circle cx="272" cy="36" r="6" fill="#FFFBFD" stroke="#FFC2E0" stroke-width="1.6"/><circle cx="294" cy="36" r="6" fill="#FFFBFD" stroke="#FFC2E0" stroke-width="1.6"/><circle cx="316" cy="36" r="6" fill="#FFFBFD" stroke="#FFC2E0" stroke-width="1.6"/><circle cx="338" cy="36" r="6" fill="#FFFBFD" stroke="#FFC2E0" stroke-width="1.6"/><circle cx="360" cy="36" r="6" fill="#FFFBFD" stroke="#FFC2E0" stroke-width="1.6"/><circle cx="382" cy="36" r="6" fill="#FFFBFD" stroke="#FFC2E0" stroke-width="1.6"/><circle cx="404" cy="36" r="6" fill="#FFFBFD" stroke="#FFC2E0" stroke-width="1.6"/><circle cx="426" cy="36" r="6" fill="#FFFBFD" stroke="#FFC2E0" stroke-width="1.6"/><circle cx="448" cy="36" r="6" fill="#FFFBFD" stroke="#FFC2E0" stroke-width="1.6"/><circle cx="470" cy="36" r="6" fill="#FFFBFD" stroke="#FFC2E0" stroke-width="1.6"/><circle cx="492" cy="36" r="6" fill="#FFFBFD" stroke="#FFC2E0" stroke-width="1.6"/><circle cx="514" cy="36" r="6" fill="#FFFBFD" stroke="#FFC2E0" stroke-width="1.6"/><circle cx="536" cy="36" r="6" fill="#FFFBFD" stroke="#FFC2E0" stroke-width="1.6"/><circle cx="558" cy="36" r="6" fill="#FFFBFD" stroke="#FFC2E0" stroke-width="1.6"/><circle cx="580" cy="36" r="6" fill="#FFFBFD" stroke="#FFC2E0" stroke-width="1.6"/><circle cx="602" cy="36" r="6" fill="#FFFBFD" stroke="#FFC2E0" stroke-width="1.6"/><circle cx="624" cy="36" r="6" fill="#FFFBFD" stroke="#FFC2E0" stroke-width="1.6"/><circle cx="646" cy="36" r="6" fill="#FFFBFD" stroke="#FFC2E0" stroke-width="1.6"/><circle cx="668" cy="36" r="6" fill="#FFFBFD" stroke="#FFC2E0" stroke-width="1.6"/><circle cx="690" cy="36" r="6" fill="#FFFBFD" stroke="#FFC2E0" stroke-width="1.6"/><circle cx="712" cy="36" r="6" fill="#FFFBFD" stroke="#FFC2E0" stroke-width="1.6"/><circle cx="734" cy="36" r="6" fill="#FFFBFD" stroke="#FFC2E0" stroke-width="1.6"/><circle cx="756" cy="36" r="6" fill="#FFFBFD" stroke="#FFC2E0" stroke-width="1.6"/><circle cx="778" cy="36" r="6" fill="#FFFBFD" stroke="#FFC2E0" stroke-width="1.6"/><circle cx="800" cy="36" r="6" fill="#FFFBFD" stroke="#FFC2E0" stroke-width="1.6"/><circle cx="822" cy="36" r="6" fill="#FFFBFD" stroke="#FFC2E0" stroke-width="1.6"/><circle cx="844" cy="36" r="6" fill="#FFFBFD" stroke="#FFC2E0" stroke-width="1.6"/><circle cx="866" cy="36" r="6" fill="#FFFBFD" stroke="#FFC2E0" stroke-width="1.6"/></g>
<g class="osc"><g transform="translate(450,26) scale(1.15)"><path d="M-6 6 q-4 20 -14 30 q8 -2 12 -8 q2 12 6 16 q4 -14 2 -34 z" fill="#FF69B4" opacity="0.95"/><path d="M6 6 q4 20 14 30 q-8 -2 -12 -8 q-2 12 -6 16 q-4 -14 -2 -34 z" fill="#FF69B4" opacity="0.95"/><path d="M0 0 c-10 -15 -30 -12 -30 2 c0 11 10 15 15 18 c-2 -8 0 -14 15 -20 z" fill="#FF69B4"/><path d="M4 -2 c10 -15 30 -12 30 2 c0 11 -10 15 -15 18 c2 -8 0 -14 -15 -20 z" fill="#FF69B4"/><ellipse cx="1" cy="3" rx="8" ry="7" fill="#E0218A"/></g></g>
</svg>